<svg xmlns="http://www.w3.org/2000/svg" viewBox="0 0 32 32">
  <rect width="32" height="32" rx="6" fill="#0ea5e9"/>
  <path d="M6 10h20c1 0 2 1 2 2v8c0 1-1 2-2 2H6c-1 0-2-1-2-2v-8c0-1 1-2 2-2z" fill="white"/>
  <rect x="6" y="12" width="5" height="4" rx="0.5" fill="#0ea5e9"/>
  <rect x="13" y="12" width="5" height="4" rx="0.5" fill="#0ea5e9"/>
  <rect x="20" y="12" width="5" height="4" rx="0.5" fill="#0ea5e9"/>
  <circle cx="9" cy="22" r="2.5" fill="#334155"/>
  <circle cx="23" cy="22" r="2.5" fill="#334155"/>
  <circle cx="9" cy="22" r="1" fill="#94a3b8"/>
  <circle cx="23" cy="22" r="1" fill="#94a3b8"/>
</svg>
